<?xml version="1.0" encoding="UTF-8" standalone="no"?>
<!DOCTYPE svg PUBLIC "-//W3C//DTD SVG 1.1//EN"
 "http://www.w3.org/Graphics/SVG/1.1/DTD/svg11.dtd">
<!-- Generated by graphviz version 6.0.1 (20220911.1526)
 -->
<!-- Title: G Pages: 1 -->
<svg width="716pt" height="260pt"
 viewBox="0.00 0.00 716.46 260.00" xmlns="http://www.w3.org/2000/svg" xmlns:xlink="http://www.w3.org/1999/xlink">
<g id="graph0" class="graph" transform="scale(1 1) rotate(0) translate(4 256)">
<title>G</title>
<polygon fill="white" stroke="none" points="-4,4 -4,-256 712.46,-256 712.46,4 -4,4"/>
<!-- sQos -->
<g id="node1" class="node">
<title>sQos</title>
<ellipse fill="none" stroke="black" cx="29.25" cy="-177" rx="28.7" ry="18"/>
<text text-anchor="middle" x="29.25" y="-173.3" font-family="Times,serif" font-size="14.00">sQos</text>
</g>
<!-- sTopic -->
<g id="node2" class="node">
<title>sTopic</title>
<ellipse fill="none" stroke="black" cx="129.59" cy="-210" rx="34.39" ry="18"/>
<text text-anchor="middle" x="129.59" y="-206.3" font-family="Times,serif" font-size="14.00">sTopic</text>
</g>
<!-- sQos&#45;&gt;sTopic -->
<g id="edge1" class="edge">
<title>sQos&#45;&gt;sTopic</title>
<path fill="none" stroke="black" d="M54.81,-185.24C65.57,-188.85 78.44,-193.17 90.4,-197.18"/>
<polygon fill="black" stroke="black" points="89.57,-200.6 100.16,-200.46 91.8,-193.96 89.57,-200.6"/>
</g>
<!-- sReader -->
<g id="node3" class="node">
<title>sReader</title>
<ellipse fill="none" stroke="black" cx="239.69" cy="-195" rx="38.99" ry="18"/>
<text text-anchor="middle" x="239.69" y="-191.3" font-family="Times,serif" font-size="14.00">sReader</text>
</g>
<!-- sQos&#45;&gt;sReader -->
<g id="edge2" class="edge">
<title>sQos&#45;&gt;sReader</title>
<path fill="none" stroke="black" d="M57.87,-177.3C85.09,-177.81 127.85,-179.2 164.69,-183 173.91,-183.95 183.73,-185.3 193.1,-186.76"/>
<polygon fill="black" stroke="black" points="192.61,-190.22 203.04,-188.36 193.73,-183.31 192.61,-190.22"/>
</g>
<!-- sTopic&#45;&gt;sReader -->
<g id="edge3" class="edge">
<title>sTopic&#45;&gt;sReader</title>
<path fill="none" stroke="black" d="M163.02,-205.5C172.16,-204.23 182.29,-202.83 192.08,-201.47"/>
<polygon fill="black" stroke="black" points="192.69,-204.92 202.11,-200.08 191.72,-197.98 192.69,-204.92"/>
</g>
<!-- Subscriber -->
<g id="node4" class="node">
<title>Subscriber</title>
<ellipse fill="none" stroke="black" cx="362.78" cy="-195" rx="48.19" ry="18"/>
<text text-anchor="middle" x="362.78" y="-191.3" font-family="Times,serif" font-size="14.00">Subscriber</text>
</g>
<!-- sReader&#45;&gt;Subscriber -->
<g id="edge4" class="edge">
<title>sReader&#45;&gt;Subscriber</title>
<path fill="none" stroke="black" d="M279,-195C287.07,-195 295.75,-195 304.34,-195"/>
<polygon fill="black" stroke="black" points="304.35,-198.5 314.35,-195 304.35,-191.5 304.35,-198.5"/>
</g>
<!-- pQos -->
<g id="node5" class="node">
<title>pQos</title>
<ellipse fill="none" stroke="black" cx="29.25" cy="-104" rx="29.5" ry="18"/>
<text text-anchor="middle" x="29.25" y="-100.3" font-family="Times,serif" font-size="14.00">pQos</text>
</g>
<!-- pTopic -->
<g id="node6" class="node">
<title>pTopic</title>
<ellipse fill="none" stroke="black" cx="129.59" cy="-111" rx="35.19" ry="18"/>
<text text-anchor="middle" x="129.59" y="-107.3" font-family="Times,serif" font-size="14.00">pTopic</text>
</g>
<!-- pQos&#45;&gt;pTopic -->
<g id="edge5" class="edge">
<title>pQos&#45;&gt;pTopic</title>
<path fill="none" stroke="black" d="M58.43,-106.01C66.51,-106.58 75.51,-107.22 84.31,-107.85"/>
<polygon fill="black" stroke="black" points="84.25,-111.35 94.47,-108.57 84.75,-104.37 84.25,-111.35"/>
</g>
<!-- pWriter -->
<g id="node7" class="node">
<title>pWriter</title>
<ellipse fill="none" stroke="black" cx="239.69" cy="-72" rx="38.19" ry="18"/>
<text text-anchor="middle" x="239.69" y="-68.3" font-family="Times,serif" font-size="14.00">pWriter</text>
</g>
<!-- pQos&#45;&gt;pWriter -->
<g id="edge6" class="edge">
<title>pQos&#45;&gt;pWriter</title>
<path fill="none" stroke="black" d="M54.64,-95.03C66.51,-91.02 81.08,-86.61 94.49,-84 126.45,-77.78 163,-74.78 191.3,-73.33"/>
<polygon fill="black" stroke="black" points="191.51,-76.83 201.33,-72.87 191.18,-69.84 191.51,-76.83"/>
</g>
<!-- pTopic&#45;&gt;pWriter -->
<g id="edge7" class="edge">
<title>pTopic&#45;&gt;pWriter</title>
<path fill="none" stroke="black" d="M158.71,-100.86C171.09,-96.39 185.86,-91.06 199.31,-86.21"/>
<polygon fill="black" stroke="black" points="200.6,-89.46 208.82,-82.78 198.22,-82.88 200.6,-89.46"/>
</g>
<!-- Publisher -->
<g id="node8" class="node">
<title>Publisher</title>
<ellipse fill="none" stroke="black" cx="362.78" cy="-72" rx="44.39" ry="18"/>
<text text-anchor="middle" x="362.78" y="-68.3" font-family="Times,serif" font-size="14.00">Publisher</text>
</g>
<!-- pWriter&#45;&gt;Publisher -->
<g id="edge8" class="edge">
<title>pWriter&#45;&gt;Publisher</title>
<path fill="none" stroke="black" d="M278.34,-72C287.71,-72 297.95,-72 307.94,-72"/>
<polygon fill="black" stroke="black" points="308.22,-75.5 318.22,-72 308.22,-68.5 308.22,-75.5"/>
</g>
<!-- TopicWithQos -->
<g id="node9" class="node">
<title>TopicWithQos</title>
<ellipse fill="none" stroke="black" cx="532.67" cy="-126" rx="62.29" ry="18"/>
<text text-anchor="middle" x="532.67" y="-122.3" font-family="Times,serif" font-size="14.00">TopicWithQos</text>
</g>
<!-- Publisher&#45;&gt;TopicWithQos -->
<g id="edge9" class="edge">
<title>Publisher&#45;&gt;TopicWithQos</title>
<path fill="none" stroke="black" d="M397.72,-83.08C412.77,-87.98 430.7,-93.8 446.87,-99 457.57,-102.44 469.03,-106.11 479.96,-109.59"/>
<polygon fill="black" stroke="black" points="479.22,-113.03 489.82,-112.73 481.35,-106.36 479.22,-113.03"/>
</g>
<!-- MultiTopics -->
<g id="node10" class="node">
<title>MultiTopics</title>
<ellipse fill="none" stroke="black" cx="532.67" cy="-72" rx="53.89" ry="18"/>
<text text-anchor="middle" x="532.67" y="-68.3" font-family="Times,serif" font-size="14.00">MultiTopics</text>
</g>
<!-- Publisher&#45;&gt;MultiTopics -->
<g id="edge10" class="edge">
<title>Publisher&#45;&gt;MultiTopics</title>
<path fill="none" stroke="black" d="M407.01,-72C425.71,-72 447.97,-72 468.47,-72"/>
<polygon fill="black" stroke="black" points="468.68,-75.5 478.68,-72 468.68,-68.5 468.68,-75.5"/>
</g>
<!-- ContentFilteredTopic -->
<g id="node11" class="node">
<title>ContentFilteredTopic</title>
<ellipse fill="none" stroke="black" cx="532.67" cy="-18" rx="85.59" ry="18"/>
<text text-anchor="middle" x="532.67" y="-14.3" font-family="Times,serif" font-size="14.00">ContentFilteredTopic</text>
</g>
<!-- Publisher&#45;&gt;ContentFilteredTopic -->
<g id="edge11" class="edge">
<title>Publisher&#45;&gt;ContentFilteredTopic</title>
<path fill="none" stroke="black" d="M397.72,-60.92C412.77,-56.02 430.7,-50.2 446.87,-45 455.93,-42.09 465.54,-39.01 474.91,-36.02"/>
<polygon fill="black" stroke="black" points="476.09,-39.32 484.56,-32.95 473.97,-32.65 476.09,-39.32"/>
</g>
<!-- msg -->
<g id="node12" class="node">
<title>msg</title>
<ellipse fill="none" stroke="black" cx="681.46" cy="-126" rx="27" ry="18"/>
<text text-anchor="middle" x="681.46" y="-122.3" font-family="Times,serif" font-size="14.00">msg</text>
</g>
<!-- TopicWithQos&#45;&gt;msg -->
<g id="edge12" class="edge">
<title>TopicWithQos&#45;&gt;msg</title>
<path fill="none" stroke="black" d="M595.07,-126C611.76,-126 629.3,-126 644.11,-126"/>
<polygon fill="black" stroke="black" points="644.36,-129.5 654.36,-126 644.36,-122.5 644.36,-129.5"/>
</g>
<!-- MultiTopics&#45;&gt;msg -->
<g id="edge13" class="edge">
<title>MultiTopics&#45;&gt;msg</title>
<path fill="none" stroke="black" d="M573.64,-83.8C587.89,-88.26 604,-93.56 618.46,-99 628.68,-102.84 639.66,-107.45 649.49,-111.77"/>
<polygon fill="black" stroke="black" points="648.32,-115.08 658.87,-115.95 651.16,-108.69 648.32,-115.08"/>
</g>
<!-- ContentFilteredTopic&#45;&gt;msg -->
<g id="edge14" class="edge">
<title>ContentFilteredTopic&#45;&gt;msg</title>
<path fill="none" stroke="black" d="M591.56,-31.18C601.03,-34.78 610.37,-39.31 618.46,-45 638.81,-59.31 655.5,-82.32 666.42,-100.16"/>
<polygon fill="black" stroke="black" points="663.5,-102.1 671.59,-108.94 669.53,-98.55 663.5,-102.1"/>
</g>
<!-- QosStrategy -->
<g id="node13" class="node">
<title>QosStrategy</title>
<ellipse fill="none" stroke="black" cx="532.67" cy="-234" rx="53.89" ry="18"/>
<text text-anchor="middle" x="532.67" y="-230.3" font-family="Times,serif" font-size="14.00">QosStrategy</text>
</g>
<!-- msg&#45;&gt;QosStrategy -->
<g id="edge15" class="edge">
<title>msg&#45;&gt;QosStrategy</title>
<path fill="none" stroke="black" d="M671.59,-143.06C661.21,-161.4 642.36,-190.19 618.46,-207 609.74,-213.13 599.57,-217.91 589.36,-221.64"/>
<polygon fill="black" stroke="black" points="587.98,-218.41 579.6,-224.89 590.19,-225.05 587.98,-218.41"/>
</g>
<!-- Expression -->
<g id="node14" class="node">
<title>Expression</title>
<ellipse fill="none" stroke="black" cx="532.67" cy="-180" rx="50.09" ry="18"/>
<text text-anchor="middle" x="532.67" y="-176.3" font-family="Times,serif" font-size="14.00">Expression</text>
</g>
<!-- msg&#45;&gt;Expression -->
<g id="edge16" class="edge">
<title>msg&#45;&gt;Expression</title>
<path fill="none" stroke="black" d="M658.87,-136.05C647.06,-141.38 632.09,-147.88 618.46,-153 606.71,-157.42 593.88,-161.75 581.83,-165.61"/>
<polygon fill="black" stroke="black" points="580.42,-162.38 571.94,-168.73 582.53,-169.06 580.42,-162.38"/>
</g>
<!-- QosStrategy&#45;&gt;Subscriber -->
<g id="edge17" class="edge">
<title>QosStrategy&#45;&gt;Subscriber</title>
<path fill="none" stroke="black" d="M487.95,-223.85C465.24,-218.57 437.38,-212.1 413.8,-206.62"/>
<polygon fill="black" stroke="black" points="414.52,-203.2 403.99,-204.34 412.94,-210.01 414.52,-203.2"/>
</g>
<!-- Expression&#45;&gt;Subscriber -->
<g id="edge18" class="edge">
<title>Expression&#45;&gt;Subscriber</title>
<path fill="none" stroke="black" d="M483.79,-184.28C463.79,-186.06 440.41,-188.15 419.62,-190.01"/>
<polygon fill="black" stroke="black" points="419.3,-186.53 409.65,-190.9 419.93,-193.5 419.3,-186.53"/>
</g>
</g>
</svg>
