<?xml version="1.0" encoding="UTF-8" standalone="no"?>
<!DOCTYPE svg PUBLIC "-//W3C//DTD SVG 1.1//EN"
 "http://www.w3.org/Graphics/SVG/1.1/DTD/svg11.dtd">
<!-- Generated by graphviz version 7.0.4 (20221203.1631)
 -->
<!-- Title: G Pages: 1 -->
<svg width="1143pt" height="337pt"
 viewBox="0.00 0.00 1142.52 337.00" xmlns="http://www.w3.org/2000/svg" xmlns:xlink="http://www.w3.org/1999/xlink">
<g id="graph0" class="graph" transform="scale(1 1) rotate(0) translate(4 333)">
<title>G</title>
<polygon fill="white" stroke="none" points="-4,4 -4,-333 1138.52,-333 1138.52,4 -4,4"/>
<g id="clust1" class="cluster">
<title>cluster0</title>
<polygon fill="none" stroke="black" points="134.59,-192 134.59,-321 1118.72,-321 1118.72,-192 134.59,-192"/>
<text text-anchor="middle" x="626.65" y="-305.8" font-family="Times,serif" font-size="14.00">For MQTT Msgs</text>
</g>
<g id="clust2" class="cluster">
<title>cluster1</title>
<polygon fill="none" stroke="black" points="142.39,-8 142.39,-137 1126.52,-137 1126.52,-8 142.39,-8"/>
<text text-anchor="middle" x="634.45" y="-121.8" font-family="Times,serif" font-size="14.00">For DDS Msgs</text>
</g>
<!-- SelectedMQTTTopic -->
<g id="node1" class="node">
<title>SelectedMQTTTopic</title>
<ellipse fill="none" stroke="black" cx="228.38" cy="-218" rx="85.59" ry="18"/>
<text text-anchor="middle" x="228.38" y="-214.3" font-family="Times,serif" font-size="14.00">SelectedMQTTTopic</text>
</g>
<!-- RecvMQTTMsg -->
<g id="node2" class="node">
<title>RecvMQTTMsg</title>
<ellipse fill="none" stroke="black" cx="420.37" cy="-218" rx="70.39" ry="18"/>
<text text-anchor="middle" x="420.37" y="-214.3" font-family="Times,serif" font-size="14.00">RecvMQTTMsg</text>
</g>
<!-- SelectedMQTTTopic&#45;&gt;RecvMQTTMsg -->
<g id="edge1" class="edge">
<title>SelectedMQTTTopic&#45;&gt;RecvMQTTMsg</title>
<path fill="none" stroke="black" d="M314.37,-218C322.27,-218 330.27,-218 338.13,-218"/>
<polygon fill="black" stroke="black" points="338.02,-221.5 348.02,-218 338.02,-214.5 338.02,-221.5"/>
</g>
<!-- MQTTMsgsHandleQueue -->
<g id="node3" class="node">
<title>MQTTMsgsHandleQueue</title>
<ellipse fill="none" stroke="black" cx="630.55" cy="-218" rx="103.98" ry="18"/>
<text text-anchor="middle" x="630.55" y="-214.3" font-family="Times,serif" font-size="14.00">MQTTMsgsHandleQueue</text>
</g>
<!-- RecvMQTTMsg&#45;&gt;MQTTMsgsHandleQueue -->
<g id="edge2" class="edge">
<title>RecvMQTTMsg&#45;&gt;MQTTMsgsHandleQueue</title>
<path fill="none" stroke="black" d="M490.98,-218C498.69,-218 506.69,-218 514.78,-218"/>
<polygon fill="black" stroke="black" points="514.73,-221.5 524.73,-218 514.73,-214.5 514.73,-221.5"/>
</g>
<!-- MQTT2DDSConvert -->
<g id="node4" class="node">
<title>MQTT2DDSConvert</title>
<ellipse fill="none" stroke="black" cx="856.99" cy="-218" rx="86.38" ry="18"/>
<text text-anchor="middle" x="856.99" y="-214.3" font-family="Times,serif" font-size="14.00">MQTT2DDSConvert</text>
</g>
<!-- MQTTMsgsHandleQueue&#45;&gt;MQTT2DDSConvert -->
<g id="edge3" class="edge">
<title>MQTTMsgsHandleQueue&#45;&gt;MQTT2DDSConvert</title>
<path fill="none" stroke="black" d="M734.9,-218C742.86,-218 750.88,-218 758.8,-218"/>
<polygon fill="black" stroke="black" points="758.8,-221.5 768.8,-218 758.8,-214.5 758.8,-221.5"/>
</g>
<!-- SendToMQTTNet -->
<g id="node6" class="node">
<title>SendToMQTTNet</title>
<ellipse fill="none" stroke="black" cx="856.99" cy="-272" rx="75.29" ry="18"/>
<text text-anchor="middle" x="856.99" y="-268.3" font-family="Times,serif" font-size="14.00">SendToMQTTNet</text>
</g>
<!-- MQTTMsgsHandleQueue&#45;&gt;SendToMQTTNet -->
<g id="edge5" class="edge">
<title>MQTTMsgsHandleQueue&#45;&gt;SendToMQTTNet</title>
<path fill="none" stroke="black" d="M692.88,-232.76C723.51,-240.13 760.56,-249.04 791.6,-256.51"/>
<polygon fill="black" stroke="black" points="790.73,-259.9 801.27,-258.84 792.37,-253.09 790.73,-259.9"/>
</g>
<!-- SendDDSMsg -->
<g id="node5" class="node">
<title>SendDDSMsg</title>
<ellipse fill="none" stroke="black" cx="1048.97" cy="-218" rx="61.99" ry="18"/>
<text text-anchor="middle" x="1048.97" y="-214.3" font-family="Times,serif" font-size="14.00">SendDDSMsg</text>
</g>
<!-- MQTT2DDSConvert&#45;&gt;SendDDSMsg -->
<g id="edge4" class="edge">
<title>MQTT2DDSConvert&#45;&gt;SendDDSMsg</title>
<path fill="none" stroke="black" d="M943.81,-218C954.31,-218 964.96,-218 975.25,-218"/>
<polygon fill="black" stroke="black" points="975.16,-221.5 985.16,-218 975.16,-214.5 975.16,-221.5"/>
</g>
<!-- DDSMsgsHandleQueue -->
<g id="node9" class="node">
<title>DDSMsgsHandleQueue</title>
<ellipse fill="none" stroke="black" cx="630.55" cy="-88" rx="96.38" ry="18"/>
<text text-anchor="middle" x="630.55" y="-84.3" font-family="Times,serif" font-size="14.00">DDSMsgsHandleQueue</text>
</g>
<!-- SendDDSMsg&#45;&gt;DDSMsgsHandleQueue -->
<g id="edge14" class="edge">
<title>SendDDSMsg&#45;&gt;DDSMsgsHandleQueue</title>
<path fill="none" stroke="black" d="M1005.73,-204.81C931.69,-181.7 778.24,-133.79 692.64,-107.07"/>
<polygon fill="black" stroke="black" points="693.82,-103.77 683.23,-104.13 691.73,-110.45 693.82,-103.77"/>
</g>
<!-- SelectedDDSTopic -->
<g id="node7" class="node">
<title>SelectedDDSTopic</title>
<ellipse fill="none" stroke="black" cx="228.38" cy="-88" rx="77.99" ry="18"/>
<text text-anchor="middle" x="228.38" y="-84.3" font-family="Times,serif" font-size="14.00">SelectedDDSTopic</text>
</g>
<!-- RecvDDSMsg -->
<g id="node8" class="node">
<title>RecvDDSMsg</title>
<ellipse fill="none" stroke="black" cx="420.37" cy="-88" rx="62.29" ry="18"/>
<text text-anchor="middle" x="420.37" y="-84.3" font-family="Times,serif" font-size="14.00">RecvDDSMsg</text>
</g>
<!-- SelectedDDSTopic&#45;&gt;RecvDDSMsg -->
<g id="edge6" class="edge">
<title>SelectedDDSTopic&#45;&gt;RecvDDSMsg</title>
<path fill="none" stroke="black" d="M306.66,-88C319.77,-88 333.35,-88 346.34,-88"/>
<polygon fill="black" stroke="black" points="346.07,-91.5 356.07,-88 346.07,-84.5 346.07,-91.5"/>
</g>
<!-- RecvDDSMsg&#45;&gt;DDSMsgsHandleQueue -->
<g id="edge7" class="edge">
<title>RecvDDSMsg&#45;&gt;DDSMsgsHandleQueue</title>
<path fill="none" stroke="black" d="M482.99,-88C495.44,-88 508.88,-88 522.39,-88"/>
<polygon fill="black" stroke="black" points="522.22,-91.5 532.22,-88 522.22,-84.5 522.22,-91.5"/>
</g>
<!-- DDS2MQTTConvert -->
<g id="node10" class="node">
<title>DDS2MQTTConvert</title>
<ellipse fill="none" stroke="black" cx="856.99" cy="-34" rx="86.38" ry="18"/>
<text text-anchor="middle" x="856.99" y="-30.3" font-family="Times,serif" font-size="14.00">DDS2MQTTConvert</text>
</g>
<!-- DDSMsgsHandleQueue&#45;&gt;DDS2MQTTConvert -->
<g id="edge8" class="edge">
<title>DDSMsgsHandleQueue&#45;&gt;DDS2MQTTConvert</title>
<path fill="none" stroke="black" d="M691.11,-73.67C720.83,-66.52 756.93,-57.83 787.77,-50.41"/>
<polygon fill="black" stroke="black" points="788.49,-53.84 797.39,-48.1 786.85,-47.03 788.49,-53.84"/>
</g>
<!-- SendToDDSNet -->
<g id="node12" class="node">
<title>SendToDDSNet</title>
<ellipse fill="none" stroke="black" cx="856.99" cy="-88" rx="67.69" ry="18"/>
<text text-anchor="middle" x="856.99" y="-84.3" font-family="Times,serif" font-size="14.00">SendToDDSNet</text>
</g>
<!-- DDSMsgsHandleQueue&#45;&gt;SendToDDSNet -->
<g id="edge10" class="edge">
<title>DDSMsgsHandleQueue&#45;&gt;SendToDDSNet</title>
<path fill="none" stroke="black" d="M727.38,-88C744.23,-88 761.57,-88 777.86,-88"/>
<polygon fill="black" stroke="black" points="777.44,-91.5 787.44,-88 777.44,-84.5 777.44,-91.5"/>
</g>
<!-- SendMQTTMsg -->
<g id="node11" class="node">
<title>SendMQTTMsg</title>
<ellipse fill="none" stroke="black" cx="1048.97" cy="-61" rx="69.59" ry="18"/>
<text text-anchor="middle" x="1048.97" y="-57.3" font-family="Times,serif" font-size="14.00">SendMQTTMsg</text>
</g>
<!-- DDS2MQTTConvert&#45;&gt;SendMQTTMsg -->
<g id="edge9" class="edge">
<title>DDS2MQTTConvert&#45;&gt;SendMQTTMsg</title>
<path fill="none" stroke="black" d="M929.54,-44.17C944.63,-46.31 960.56,-48.58 975.67,-50.73"/>
<polygon fill="black" stroke="black" points="975.15,-54.19 985.55,-52.13 976.14,-47.26 975.15,-54.19"/>
</g>
<!-- SendMQTTMsg&#45;&gt;MQTTMsgsHandleQueue -->
<g id="edge13" class="edge">
<title>SendMQTTMsg&#45;&gt;MQTTMsgsHandleQueue</title>
<path fill="none" stroke="black" d="M1018.83,-77.63C998.18,-89.02 969.61,-104 943.43,-115 860.69,-149.77 761.8,-180.72 697.89,-199.41"/>
<polygon fill="black" stroke="black" points="697.24,-195.95 688.62,-202.1 699.2,-202.67 697.24,-195.95"/>
</g>
<!-- LoadConfig -->
<g id="node13" class="node">
<title>LoadConfig</title>
<ellipse fill="none" stroke="black" cx="53.3" cy="-153" rx="53.09" ry="18"/>
<text text-anchor="middle" x="53.3" y="-149.3" font-family="Times,serif" font-size="14.00">LoadConfig</text>
</g>
<!-- LoadConfig&#45;&gt;SelectedMQTTTopic -->
<g id="edge11" class="edge">
<title>LoadConfig&#45;&gt;SelectedMQTTTopic</title>
<path fill="none" stroke="black" d="M89.74,-166.31C114.1,-175.46 146.88,-187.77 174.33,-198.08"/>
<polygon fill="black" stroke="black" points="172.95,-201.3 183.54,-201.53 175.41,-194.74 172.95,-201.3"/>
</g>
<!-- LoadConfig&#45;&gt;SelectedDDSTopic -->
<g id="edge12" class="edge">
<title>LoadConfig&#45;&gt;SelectedDDSTopic</title>
<path fill="none" stroke="black" d="M89.74,-139.69C114.45,-130.41 147.82,-117.88 175.51,-107.48"/>
<polygon fill="black" stroke="black" points="176.66,-110.79 184.79,-104 174.2,-104.23 176.66,-110.79"/>
</g>
</g>
</svg>
